<svg width="1440" height="900" viewBox="0 0 1440 900" fill="none" xmlns="http://www.w3.org/2000/svg">
<path d="M69.5 50C73.5 2.4 96.5 -27.1667 107.5 -36H0V182C58.5 171 64.5 109.5 69.5 50Z" fill="#3B608D"/>
<path d="M138.5 -36C131.667 -29.3333 120.72 -13.4391 111.5 5C103 22 85 87.5 61.5 110.5" stroke="#3B608D"/>
<path d="M1462.2 -0.607384C1462.2 76.377 1409.55 138.785 1344.6 138.785C1250.5 144.5 1202.5 41.5 1200 -35C1200 -111.984 1279.65 -140 1344.6 -140C1409.55 -140 1462.2 -77.5918 1462.2 -0.607384Z" fill="#EA6D35"/>
<path d="M815.5 -16.0717C820 21.4283 791.5 61.4282 723 77.9282C674 89.7311 660 71.0339 660 37.4281C660 3.82228 703.5 -52.572 749.427 -60.1773C789.5 -64.5719 810 -51.5719 815.5 -16.0717Z" fill="#FFDAC7"/>
<ellipse cx="104.179" cy="123.483" rx="104.179" ry="123.483" transform="matrix(0.734019 0.679128 0.679128 -0.734019 -114 890.277)" fill="#3B608D"/>
<path d="M1235 920.622C1247.99 905.389 1283.02 871.553 1319.16 858.065C1364.34 841.206 1378.96 805.27 1398.01 739.608" stroke="#EA6D35"/>
<path d="M1353.34 847.045C1327.52 862.558 1297.99 901.267 1285.23 920.622H1439.71V659.999C1416.56 668.421 1402.31 693.242 1398.31 740.225C1394.3 787.208 1382.15 829.734 1353.34 847.045Z" fill="#EA6D35"/>
<path d="M673.737 860.418C673.737 844.106 655.175 830 635.528 830C615.881 830 601.711 848.073 601.711 864.386C601.711 880.699 623.231 891.278 642.555 889.515C662.202 889.515 673.737 876.731 673.737 860.418Z" fill="#FFDAC7"/>
</svg>
